<svg id="Camada_1" data-name="Camada 1" xmlns="http://www.w3.org/2000/svg" viewBox="0 0 100.78 97.14"><defs><style>.cls-1{fill:#d6101f;}.cls-2{fill:#fff;}</style></defs><path class="cls-1" d="M94.52,0H6A6,6,0,0,0,0,6V91.15a6,6,0,0,0,6,6H94.8a6,6,0,0,0,6-6V6a6,6,0,0,0-6-6h-.28"/><path class="cls-2" d="M89,18.11v.09a5.45,5.45,0,0,1-1.07,3.11L81,30.67H27.46L42.09,12H82.42A6.06,6.06,0,0,1,89,18.11"/><path class="cls-2" d="M70.34,61.94A16.58,16.58,0,0,1,72,68.45,16.3,16.3,0,0,1,56,85.36l-35.24-.15L11.94,67H50.57L37.14,47.93,52.45,34.09H76L60.76,48s4.69,6.58,7.48,10.63a29.17,29.17,0,0,1,2.1,3.36"/></svg>