<svg id="Camada_1" data-name="Camada 1" xmlns="http://www.w3.org/2000/svg" viewBox="0 0 97.14 97.14"><defs><style>.cls-1{fill:#d6101f;}</style></defs><path class="cls-1" d="M82.91,14.23a48.56,48.56,0,1,0,0,68.68A48.56,48.56,0,0,0,82.91,14.23ZM63.8,57.08A27.26,27.26,0,0,1,65.6,60,14.13,14.13,0,0,1,67,65.54,14,14,0,0,1,53.31,80l-30.19-.13L15.57,64.28H48.66L37.16,48,50.27,36.1H70.44L57.39,48S61.41,53.61,63.8,57.08ZM81.56,22.49a4.56,4.56,0,0,1-.91,2.65l-5.93,8H28.86l12.53-16H76a5.19,5.19,0,0,1,5.62,5.27A.28.28,0,0,1,81.56,22.49Z"/></svg>